<svg version="1.0" xmlns="http://www.w3.org/2000/svg"
     width="279.000000pt" height="296.000000pt" viewBox="0 0 279.000000 296.000000"
     preserveAspectRatio="xMidYMid meet">

    <defs>
        <filter id="f4" x="0" y="0" width="200%" height="200%">
            <feOffset result="offOut" in="SourceGraphic" dx="20" dy="20" />
            <feColorMatrix result="matrixOut" in="offOut" type="matrix"
                           values="0.2 0 0 0 0 0 0.2 0 0 0 0 0 0.2 0 0 0 0 0 1 0" />
            <feGaussianBlur result="blurOut" in="matrixOut" stdDeviation="10" />
            <feBlend in="SourceGraphic" in2="blurOut" mode="normal" />
        </filter>
    </defs>

    <g transform="translate(0.000000,296.000000) scale(0.100000,-0.100000)"
       fill="#FF0000" stroke="none" filter="url(#f4)">
        <path d="M626 2951 c-3 -4 -4 -4 -1 -1 -76 -12 -215 -94 -313 -208 -74
  -86 -77 -95 -17 -64 121 61 274 69 402 22 73 -27 1539 -875 1582 -915 68 -64
  81 -159 31 -238 -28 -45 -62 -66 -794 -490 l-765 -443 -3 -75 c-3 -86 5 -109
  51 -136 66 -41 47 -50 854 417 415 241 776 456 801 478 108 95 158 221 150
  380 -5 85 -9 104 -43 173 -67 134 -62 131 -900 616 -417 242 -784 450 -814
  463 -31 12 -68 23 -83 23 -15 0 -30 5 -33 10 -8 12 -52 13 -59 1z"/>
        <path d="M380 2637 c-135 -31 -262 -130 -319 -250 -52 -109 -54 -144 -46
  -1116 8 -980 5 -934 74 -1035 75 -109 227 -184 426 -210 l50 -6 -51 34 c-67
  46 -138 126 -174 201 -60 120 -60 117 -60 1070 0 577 4 883 11 908 30 108 154
  172 250 130 24 -11 379 -215 788 -453 l745 -433 54 29 c73 39 92 65 92 125 0
  42 -5 54 -32 83 -40 41 -1490 883 -1565 908 -70 24 -176 30 -243 15z"/>
        <path d="M432 2295 c-19 -8 -42 -25 -53 -37 -18 -22 -19 -52 -16 -958 l2 -935
  31 -65 c47 -99 119 -172 222 -223 l86 -42 115 0 c99 0 123 4 166 23 28 13 389
  220 804 460 511 296 771 453 807 485 35 32 65 72 86 114 28 58 33 79 36 163 5
  107 -15 208 -60 310 l-24 55 -2 -50 c-4 -108 -60 -239 -140 -326 -34 -37 -90
  -78 -178 -130 -217 -129 -1370 -797 -1413 -819 -84 -42 -188 -13 -246 69 l-30
  43 -1 897 c0 494 -4 903 -8 909 -9 16 -91 59 -123 66 -16 3 -43 -1 -61 -9z"/>
    </g>
</svg>
